<svg fill="#000000" xmlns="http://www.w3.org/2000/svg"  viewBox="0 0 50 50" width="50px" height="50px"><path d="M 37 0 C 35.75 0 34.685226 0.50475559 34.001953 1.2734375 C 33.318681 2.0421194 33 3.0277779 33 4 C 33 4.9722221 33.318681 5.9578806 34.001953 6.7265625 C 34.685226 7.4952444 35.75 8 37 8 C 38.25 8 39.314774 7.4952444 39.998047 6.7265625 C 40.681319 5.9578806 41 4.9722221 41 4 C 41 3.0277779 40.681319 2.0421194 39.998047 1.2734375 C 39.314774 0.50475559 38.25 0 37 0 z M 37 2 C 37.749999 2 38.185226 2.2452444 38.501953 2.6015625 C 38.81868 2.9578806 39 3.4722221 39 4 C 39 4.5277779 38.81868 5.0421194 38.501953 5.3984375 C 38.185226 5.7547556 37.749999 6 37 6 C 36.250001 6 35.814774 5.7547556 35.498047 5.3984375 C 35.18132 5.0421194 35 4.5277779 35 4 C 35 3.4722221 35.18132 2.9578806 35.498047 2.6015625 C 35.814774 2.2452444 36.250001 2 37 2 z M 9.5 3 C 8.4166669 3 7.4768923 3.4422556 6.8769531 4.1171875 C 6.2770139 4.7921194 6 5.6527779 6 6.5 C 6 7.3472221 6.2770139 8.2078806 6.8769531 8.8828125 C 7.4768923 9.5577444 8.4166669 10 9.5 10 C 10.583333 10 11.523108 9.5577444 12.123047 8.8828125 C 12.722986 8.2078806 13 7.3472221 13 6.5 C 13 5.6527779 12.722986 4.7921194 12.123047 4.1171875 C 11.523108 3.4422556 10.583333 3 9.5 3 z M 9.5 5 C 10.083333 5 10.393559 5.1827444 10.626953 5.4453125 C 10.860347 5.7078806 11 6.0972221 11 6.5 C 11 6.9027779 10.860347 7.2921194 10.626953 7.5546875 C 10.393559 7.8172556 10.083333 8 9.5 8 C 8.9166671 8 8.6064406 7.8172556 8.3730469 7.5546875 C 8.1396531 7.2921194 8 6.9027779 8 6.5 C 8 6.0972221 8.1396531 5.7078806 8.3730469 5.4453125 C 8.6064406 5.1827444 8.9166671 5 9.5 5 z M 25 6.953125 C 17.257617 6.953125 10.651785 11.803963 8.0644531 18.619141 A 1.0001 1.0001 0 0 0 9.7226562 19.666016 C 12.71927 16.531563 18.421411 14.273436 25 14.273438 C 31.578589 14.273438 37.28073 16.531563 40.277344 19.666016 A 1.0001 1.0001 0 0 0 41.935547 18.621094 C 39.348231 11.804897 32.742292 6.953125 25 6.953125 z M 25 8.953125 C 30.29549 8.953125 34.93789 11.518263 37.869141 15.431641 C 34.397545 13.469426 29.939286 12.273437 25 12.273438 C 20.060714 12.273437 15.602455 13.469426 12.130859 15.431641 C 15.062134 11.518423 19.70458 8.953125 25 8.953125 z M 9.0078125 29.978516 A 1.0001 1.0001 0 0 0 8.0644531 31.333984 C 10.651769 38.150181 17.257708 43 25 43 C 32.742292 43 39.348231 38.150181 41.935547 31.333984 A 1.0001 1.0001 0 0 0 40.277344 30.287109 C 37.28073 33.421562 31.578589 35.679688 25 35.679688 C 18.421411 35.679688 12.71927 33.421562 9.7226562 30.287109 A 1.0001 1.0001 0 0 0 9.0078125 29.978516 z M 12.128906 34.519531 C 15.600813 36.482554 20.059602 37.679688 25 37.679688 C 29.940398 37.679688 34.399187 36.482554 37.871094 34.519531 C 34.940011 38.434886 30.297062 41 25 41 C 19.702938 41 15.059989 38.434886 12.128906 34.519531 z M 11.5 41 C 10.083334 41 8.8935589 41.567256 8.1269531 42.429688 C 7.3603473 43.292119 7 44.402778 7 45.5 C 7 46.597222 7.3603473 47.707881 8.1269531 48.570312 C 8.8935589 49.432744 10.083334 50 11.5 50 C 12.916666 50 14.106441 49.432745 14.873047 48.570312 C 15.639653 47.707881 16 46.597222 16 45.5 C 16 44.402778 15.639653 43.292119 14.873047 42.429688 C 14.106441 41.567256 12.916666 41 11.5 41 z M 11.5 43 C 12.416666 43 12.976893 43.307745 13.376953 43.757812 C 13.777013 44.207881 14 44.847222 14 45.5 C 14 46.152778 13.777013 46.792119 13.376953 47.242188 C 12.976893 47.692256 12.416666 48 11.5 48 C 10.583334 48 10.023107 47.692255 9.6230469 47.242188 C 9.2229865 46.792119 9 46.152778 9 45.5 C 9 44.847222 9.2229865 44.207881 9.6230469 43.757812 C 10.023107 43.307744 10.583334 43 11.5 43 z"/></svg>